<?xml version="1.0" standalone="no"?>
<!DOCTYPE svg PUBLIC "-//W3C//DTD SVG 20010904//EN"
 "http://www.w3.org/TR/2001/REC-SVG-20010904/DTD/svg10.dtd">
<svg version="1.0" xmlns="http://www.w3.org/2000/svg"
 width="512.000000pt" height="512.000000pt" viewBox="0 0 512.000000 512.000000"
 preserveAspectRatio="xMidYMid meet">
<metadata>
Created by potrace 1.11, written by Peter Selinger 2001-2013
</metadata>
<g transform="translate(0.000000,512.000000) scale(0.100000,-0.100000)"
fill="#000000" stroke="none">
<path d="M3583 5102 c-74 -26 -127 -67 -167 -126 -42 -63 -56 -112 -56 -193
l0 -63 -53 0 c-43 0 -58 -5 -75 -23 -27 -28 -28 -67 -4 -97 14 -18 32 -24 75
-28 52 -4 57 -7 57 -28 0 -13 -1 -24 -2 -24 -2 0 -50 16 -108 36 -260 88 -467
118 -755 111 -206 -5 -296 -17 -480 -63 -347 -88 -686 -284 -955 -554 -502
-501 -708 -1189 -569 -1900 42 -220 160 -512 286 -713 l49 -79 -99 -360 c-54
-198 -96 -362 -94 -365 3 -2 172 38 376 90 l370 95 78 -45 c396 -227 724 -323
1106 -323 558 0 1075 218 1482 625 405 406 624 930 625 1497 0 300 -59 588
-171 837 -16 35 -29 65 -29 67 0 1 54 4 121 6 170 4 159 -16 159 299 0 137 3
249 8 249 4 0 70 -63 147 -140 91 -92 147 -140 161 -140 25 0 54 29 54 56 0
11 -59 78 -142 161 l-143 143 143 143 c92 92 142 150 142 163 0 25 -30 54 -56
54 -11 0 -76 -56 -159 -140 -77 -77 -143 -140 -147 -140 -4 0 -9 200 -10 445
-3 411 -4 446 -21 462 -16 17 -54 18 -555 20 -496 2 -541 1 -589 -15z m571
-428 c144 -73 165 -269 39 -373 -20 -16 -49 -33 -65 -36 -31 -7 -29 -25 3 -25
11 0 44 -11 74 -25 102 -49 195 -183 195 -280 l0 -35 -346 0 -347 0 7 50 c9
69 36 127 85 182 42 47 146 108 185 108 12 0 28 5 36 10 12 8 11 10 -8 10 -34
0 -96 35 -126 70 -14 17 -33 56 -42 87 -18 62 -9 121 27 180 55 88 188 124
283 77z m-2230 -935 c18 -20 255 -540 279 -611 12 -35 -21 -89 -130 -213 -65
-73 -113 -135 -113 -146 0 -29 61 -135 133 -233 180 -244 475 -467 756 -573
57 -22 66 -22 86 -9 13 8 75 82 139 164 63 83 123 152 132 156 8 3 27 6 41 6
37 0 593 -257 621 -286 28 -32 28 -64 -2 -185 -33 -133 -69 -202 -146 -280
-147 -150 -388 -213 -626 -163 -191 39 -529 182 -729 309 -188 119 -367 270
-531 445 -453 486 -630 945 -498 1297 30 82 77 153 157 239 98 106 123 115
280 112 124 -3 130 -4 151 -29z"/>
</g>
</svg>
